<svg width="40" height="46" viewBox="0 0 40 46" fill="none" xmlns="http://www.w3.org/2000/svg">
<g clip-path="url(#clip0_64_65)">
<path d="M19.1161 15.5H19.2477L19.3622 15.4352L20.2462 14.9352L20.2606 14.927L20.2745 14.9179C20.735 14.6155 21.1315 14.3398 21.4772 14.0846C21.929 13.9971 22.3743 13.8688 22.807 13.6997L22.8071 13.6997C24.8439 12.9031 27.6713 12 30.0089 12C33.1968 12 35.5527 13.7472 37.1353 16.3748C38.7258 19.0155 39.5089 22.5143 39.5089 25.875C39.5089 31.4768 37.1357 36.1313 33.887 39.3894C30.6278 42.6579 26.5257 44.4848 23.1161 44.4848C22.2485 44.4848 21.9029 44.5613 21.6912 44.6518C21.6193 44.6285 21.4998 44.5868 21.2914 44.5133L21.2893 44.5125C20.4597 44.224 19.5582 44.224 18.7286 44.5125L18.7264 44.5133C18.5706 44.5683 18.4628 44.6059 18.3876 44.6314C18.3311 44.6027 18.2711 44.5805 18.2086 44.5629C18.0245 44.511 17.7659 44.4848 17.3839 44.4848C13.9665 44.4848 9.73939 42.6549 6.35772 39.3831C2.98701 36.1218 0.5 31.4687 0.5 25.875C0.5 22.5143 1.28312 19.0155 2.87362 16.3748C4.45625 13.7472 6.81209 12 10 12C12.3347 12 15.1489 12.8919 17.192 13.6958C17.2606 14.6983 18.0961 15.5 19.1161 15.5ZM21.0686 13.1415C20.1676 13.2855 19.2416 13.2453 18.3545 13.0209L18.5736 12.2222C19.4752 11.0094 20.1748 10.4272 20.9023 9.843C20.9377 9.81461 20.9731 9.7862 21.0087 9.7577C21.7177 9.18942 22.4701 8.5864 23.4157 7.42487L24.6206 7.00316C25.0603 7.03989 25.4205 7.39239 25.4679 7.83748L24.8285 9.20208C24.0754 9.91952 23.6323 10.4851 23.239 10.987C23.0893 11.178 22.9469 11.3597 22.7974 11.5371C22.4094 11.9975 21.9307 12.4881 21.0686 13.1415ZM18.3184 14.0401C18.7074 14.127 19.102 14.1834 19.4983 14.2094L18.998 14.4923C18.7111 14.4548 18.4621 14.2826 18.3184 14.0401ZM21.5755 44.7078C21.5756 44.7077 21.5776 44.7067 21.5812 44.7051C21.5772 44.7071 21.5754 44.708 21.5755 44.7078ZM18.2345 44.6784C18.2344 44.6782 18.238 44.6773 18.2448 44.6762C18.2441 44.6764 18.2434 44.6766 18.2428 44.6767C18.2372 44.6781 18.2345 44.6785 18.2345 44.6784ZM18.6205 44.816C18.6283 44.8246 18.6308 44.8285 18.6279 44.825L18.6256 44.8221C18.6242 44.8204 18.6225 44.8184 18.6205 44.816Z" fill="#56FF1E" stroke="#00CE0A"/>
<path d="M24.4999 31C24.4998 32.0134 24.2065 33.0052 23.6552 33.8555C23.1039 34.7059 22.3183 35.3785 21.3932 35.7923C20.4681 36.206 19.443 36.3432 18.4417 36.1872C17.4404 36.0312 16.5056 35.5887 15.7502 34.9131C15.673 34.8486 15.6097 34.7692 15.5638 34.6797C15.518 34.5902 15.4907 34.4923 15.4834 34.392C15.4761 34.2917 15.4891 34.191 15.5216 34.0958C15.5541 34.0006 15.6053 33.9129 15.6724 33.8379C15.7394 33.763 15.8209 33.7023 15.9119 33.6594C16.0028 33.6165 16.1015 33.5924 16.202 33.5885C16.3025 33.5845 16.4028 33.6008 16.4968 33.6364C16.5909 33.672 16.6768 33.7261 16.7496 33.7956C17.2027 34.2007 17.7474 34.4896 18.337 34.6374C18.9265 34.7852 19.5432 34.7875 20.1338 34.6441C20.7244 34.5007 21.2713 34.2159 21.7274 33.8142C22.1836 33.4125 22.5352 32.9059 22.7521 32.3381C22.969 31.7704 23.0446 31.1584 22.9724 30.5549C22.9003 29.9514 22.6825 29.3745 22.3379 28.8738C21.9933 28.3732 21.5322 27.9638 20.9943 27.6809C20.4563 27.398 19.8577 27.2501 19.2499 27.25C19.1106 27.25 18.9741 27.2112 18.8556 27.138C18.7371 27.0648 18.6413 26.96 18.579 26.8354C18.5168 26.7108 18.4904 26.5714 18.5029 26.4326C18.5154 26.2939 18.5663 26.1614 18.6499 26.05L22.2499 21.25H16.2499C16.051 21.25 15.8602 21.171 15.7195 21.0303C15.5789 20.8897 15.4999 20.6989 15.4999 20.5C15.4999 20.3011 15.5789 20.1103 15.7195 19.9697C15.8602 19.829 16.051 19.75 16.2499 19.75H23.7499C23.8892 19.75 24.0257 19.7888 24.1442 19.862C24.2626 19.9352 24.3584 20.04 24.4207 20.1646C24.483 20.2892 24.5093 20.4286 24.4968 20.5674C24.4843 20.7061 24.4334 20.8386 24.3499 20.95L20.6149 25.93C21.7291 26.2316 22.7131 26.8915 23.4152 27.8077C24.1173 28.7239 24.4984 29.8457 24.4999 31Z" fill="#F23434" stroke="#F23434"/>
</g>
<defs>
<clipPath id="clip0_64_65">
<rect width="40" height="46" fill="white"/>
</clipPath>
</defs>
</svg>
