<svg width="40" height="46" viewBox="0 0 40 46" fill="none" xmlns="http://www.w3.org/2000/svg">
<g clip-path="url(#clip0_64_71)">
<path d="M19.1161 15.5H19.2477L19.3622 15.4352L20.2462 14.9352L20.2606 14.927L20.2745 14.9179C20.735 14.6155 21.1315 14.3398 21.4772 14.0846C21.929 13.9971 22.3743 13.8688 22.807 13.6997L22.8071 13.6997C24.8439 12.9031 27.6713 12 30.0089 12C33.1968 12 35.5527 13.7472 37.1353 16.3748C38.7258 19.0155 39.5089 22.5143 39.5089 25.875C39.5089 31.4768 37.1357 36.1313 33.887 39.3894C30.6278 42.6579 26.5257 44.4848 23.1161 44.4848C22.2485 44.4848 21.9029 44.5613 21.6912 44.6518C21.6193 44.6285 21.4998 44.5868 21.2914 44.5133L21.2893 44.5125C20.4597 44.224 19.5582 44.224 18.7286 44.5125L18.7264 44.5133C18.5706 44.5683 18.4628 44.6059 18.3876 44.6314C18.3311 44.6027 18.2711 44.5805 18.2086 44.5629C18.0245 44.511 17.7659 44.4848 17.3839 44.4848C13.9665 44.4848 9.73939 42.6549 6.35772 39.3831C2.98701 36.1218 0.5 31.4687 0.5 25.875C0.5 22.5143 1.28312 19.0155 2.87362 16.3748C4.45625 13.7472 6.81209 12 10 12C12.3347 12 15.1489 12.8919 17.192 13.6958C17.2606 14.6983 18.0961 15.5 19.1161 15.5ZM21.0686 13.1415C20.1676 13.2855 19.2416 13.2453 18.3545 13.0209L18.5736 12.2222C19.4752 11.0094 20.1748 10.4272 20.9023 9.843C20.9377 9.81461 20.9731 9.7862 21.0087 9.7577C21.7177 9.18942 22.4701 8.5864 23.4157 7.42487L24.6206 7.00316C25.0603 7.03989 25.4205 7.39239 25.4679 7.83748L24.8285 9.20208C24.0754 9.91952 23.6323 10.4851 23.239 10.987C23.0893 11.178 22.9469 11.3597 22.7974 11.5371C22.4094 11.9975 21.9307 12.4881 21.0686 13.1415ZM18.3184 14.0401C18.7074 14.127 19.102 14.1834 19.4983 14.2094L18.998 14.4923C18.7111 14.4548 18.4621 14.2826 18.3184 14.0401ZM21.5755 44.7078C21.5756 44.7077 21.5776 44.7067 21.5812 44.7051C21.5772 44.7071 21.5754 44.708 21.5755 44.7078ZM18.2345 44.6784C18.2344 44.6782 18.238 44.6773 18.2448 44.6762C18.2441 44.6764 18.2434 44.6766 18.2428 44.6767C18.2372 44.6781 18.2345 44.6785 18.2345 44.6784ZM18.6205 44.816C18.6283 44.8246 18.6308 44.8285 18.6279 44.825L18.6256 44.8221C18.6242 44.8204 18.6225 44.8184 18.6205 44.816Z" fill="#56FF1E" stroke="#00CE0A"/>
<path d="M24.4999 31C24.4998 32.0134 24.2065 33.0052 23.6552 33.8555C23.1039 34.7059 22.3183 35.3785 21.3932 35.7923C20.4681 36.206 19.443 36.3432 18.4417 36.1872C17.4404 36.0312 16.5056 35.5887 15.7502 34.9131C15.673 34.8486 15.6097 34.7692 15.5638 34.6797C15.518 34.5902 15.4907 34.4923 15.4834 34.392C15.4761 34.2917 15.4891 34.191 15.5216 34.0958C15.5541 34.0006 15.6053 33.9129 15.6724 33.8379C15.7394 33.763 15.8209 33.7023 15.9119 33.6594C16.0028 33.6165 16.1015 33.5924 16.202 33.5885C16.3025 33.5845 16.4028 33.6008 16.4968 33.6364C16.5909 33.672 16.6768 33.7261 16.7496 33.7956C17.2861 34.2755 17.9494 34.5908 18.6603 34.7039C19.3712 34.817 20.0996 34.7232 20.7586 34.4335C21.4176 34.1438 21.9793 33.6706 22.3766 33.0704C22.7739 32.4701 22.99 31.7682 22.9992 31.0484C23.0084 30.3286 22.8103 29.6214 22.4284 29.0112C22.0465 28.401 21.4971 27.9136 20.8458 27.6072C20.1944 27.3008 19.4686 27.1884 18.7551 27.2833C18.0415 27.3782 17.3704 27.6765 16.8217 28.1425C16.703 28.2424 16.5561 28.303 16.4015 28.3159C16.2468 28.3288 16.092 28.2935 15.9583 28.2147C15.8246 28.1359 15.7186 28.0176 15.655 27.876C15.5913 27.7345 15.5732 27.5767 15.603 27.4244L17.0149 20.3528C17.0489 20.1829 17.1407 20.03 17.2747 19.9201C17.4087 19.8102 17.5766 19.7501 17.7499 19.75H23.7499C23.9488 19.75 24.1395 19.829 24.2802 19.9697C24.4209 20.1103 24.4999 20.3011 24.4999 20.5C24.4999 20.6989 24.4209 20.8897 24.2802 21.0303C24.1395 21.171 23.9488 21.25 23.7499 21.25H18.3649L17.3974 26.0875C18.1919 25.7879 19.0472 25.6854 19.89 25.789C20.7328 25.8925 21.538 26.199 22.2363 26.682C22.9347 27.165 23.5055 27.8102 23.8997 28.5623C24.294 29.3144 24.4999 30.1509 24.4999 31Z" fill="#F23434" stroke="#F23434"/>
</g>
<defs>
<clipPath id="clip0_64_71">
<rect width="40" height="46" fill="white"/>
</clipPath>
</defs>
</svg>
