<svg width="40" height="46" viewBox="0 0 40 46" fill="none" xmlns="http://www.w3.org/2000/svg">
<g clip-path="url(#clip0_64_73)">
<path d="M19.1161 15.5H19.2477L19.3622 15.4352L20.2462 14.9352L20.2606 14.927L20.2745 14.9179C20.735 14.6155 21.1315 14.3398 21.4772 14.0846C21.929 13.9971 22.3743 13.8688 22.807 13.6997L22.8071 13.6997C24.8439 12.9031 27.6713 12 30.0089 12C33.1968 12 35.5527 13.7472 37.1353 16.3748C38.7258 19.0155 39.5089 22.5143 39.5089 25.875C39.5089 31.4768 37.1357 36.1313 33.887 39.3894C30.6278 42.6579 26.5257 44.4848 23.1161 44.4848C22.2485 44.4848 21.9029 44.5613 21.6912 44.6518C21.6193 44.6285 21.4998 44.5868 21.2914 44.5133L21.2893 44.5125C20.4597 44.224 19.5582 44.224 18.7286 44.5125L18.7264 44.5133C18.5706 44.5683 18.4628 44.6059 18.3876 44.6314C18.3311 44.6027 18.2711 44.5805 18.2086 44.5629C18.0245 44.511 17.7659 44.4848 17.3839 44.4848C13.9665 44.4848 9.73939 42.6549 6.35772 39.3831C2.98701 36.1218 0.5 31.4687 0.5 25.875C0.5 22.5143 1.28312 19.0155 2.87362 16.3748C4.45625 13.7472 6.81209 12 10 12C12.3347 12 15.1489 12.8919 17.192 13.6958C17.2606 14.6983 18.0961 15.5 19.1161 15.5ZM21.0686 13.1415C20.1676 13.2855 19.2416 13.2453 18.3545 13.0209L18.5736 12.2222C19.4752 11.0094 20.1748 10.4272 20.9023 9.843C20.9377 9.81461 20.9731 9.7862 21.0087 9.7577C21.7177 9.18942 22.4701 8.5864 23.4157 7.42487L24.6206 7.00316C25.0603 7.03989 25.4205 7.39239 25.4679 7.83748L24.8285 9.20208C24.0754 9.91952 23.6323 10.4851 23.239 10.987C23.0893 11.178 22.9469 11.3597 22.7974 11.5371C22.4094 11.9975 21.9307 12.4881 21.0686 13.1415ZM18.3184 14.0401C18.7074 14.127 19.102 14.1834 19.4983 14.2094L18.998 14.4923C18.7111 14.4548 18.4621 14.2826 18.3184 14.0401ZM21.5755 44.7078C21.5756 44.7077 21.5776 44.7067 21.5812 44.7051C21.5772 44.7071 21.5754 44.708 21.5755 44.7078ZM18.2345 44.6784C18.2344 44.6782 18.238 44.6773 18.2448 44.6762C18.2441 44.6764 18.2434 44.6766 18.2428 44.6767C18.2372 44.6781 18.2345 44.6785 18.2345 44.6784ZM18.6205 44.816C18.6283 44.8246 18.6308 44.8285 18.6279 44.825L18.6256 44.8221C18.6242 44.8204 18.6225 44.8184 18.6205 44.816Z" fill="#56FF1E" stroke="#00CE0A"/>
<path d="M20.0001 25.75C19.5046 25.7502 19.0116 25.8206 18.5358 25.9591L21.4064 20.8685C21.504 20.6944 21.5284 20.4887 21.4744 20.2966C21.4203 20.1046 21.2921 19.9418 21.1181 19.8442C20.944 19.7466 20.7384 19.7222 20.5463 19.7763C20.3542 19.8303 20.1915 19.9585 20.0939 20.1325L15.4486 28.3825C14.8726 29.384 14.643 30.5475 14.7954 31.6927C14.9479 32.8379 15.4738 33.9009 16.2917 34.7168C17.1096 35.5327 18.1738 36.0561 19.3194 36.2058C20.465 36.3554 21.6279 36.1231 22.628 35.5446C23.6281 34.9662 24.4094 34.0741 24.851 33.0065C25.2925 31.9388 25.3696 30.7554 25.0702 29.6396C24.7708 28.5237 24.1117 27.5378 23.1951 26.8346C22.2784 26.1314 21.1554 25.7501 20.0001 25.75ZM20.0001 34.75C19.2584 34.75 18.5334 34.5301 17.9167 34.118C17.3001 33.706 16.8194 33.1203 16.5356 32.4351C16.2517 31.7499 16.1775 30.9959 16.3222 30.2684C16.4669 29.541 16.824 28.8728 17.3485 28.3484C17.8729 27.8239 18.5411 27.4668 19.2685 27.3221C19.996 27.1774 20.75 27.2516 21.4352 27.5355C22.1204 27.8193 22.7061 28.2999 23.1181 28.9166C23.5302 29.5333 23.7501 30.2583 23.7501 31C23.7501 31.9946 23.355 32.9484 22.6518 33.6517C21.9485 34.3549 20.9947 34.75 20.0001 34.75Z" fill="#F23434" stroke="#F23434"/>
</g>
<defs>
<clipPath id="clip0_64_73">
<rect width="40" height="46" fill="white"/>
</clipPath>
</defs>
</svg>
