<svg width="40" height="46" viewBox="0 0 40 46" fill="none" xmlns="http://www.w3.org/2000/svg">
<g clip-path="url(#clip0_64_75)">
<path d="M19.1161 15.5H19.2477L19.3622 15.4352L20.2462 14.9352L20.2606 14.927L20.2745 14.9179C20.735 14.6155 21.1315 14.3398 21.4772 14.0846C21.929 13.9971 22.3743 13.8688 22.807 13.6997L22.8071 13.6997C24.8439 12.9031 27.6713 12 30.0089 12C33.1968 12 35.5527 13.7472 37.1353 16.3748C38.7258 19.0155 39.5089 22.5143 39.5089 25.875C39.5089 31.4768 37.1357 36.1313 33.887 39.3894C30.6278 42.6579 26.5257 44.4848 23.1161 44.4848C22.2485 44.4848 21.9029 44.5613 21.6912 44.6518C21.6193 44.6285 21.4998 44.5868 21.2914 44.5133L21.2893 44.5125C20.4597 44.224 19.5582 44.224 18.7286 44.5125L18.7264 44.5133C18.5706 44.5683 18.4628 44.6059 18.3876 44.6314C18.3311 44.6027 18.2711 44.5805 18.2086 44.5629C18.0245 44.511 17.7659 44.4848 17.3839 44.4848C13.9665 44.4848 9.73939 42.6549 6.35772 39.3831C2.98701 36.1218 0.5 31.4687 0.5 25.875C0.5 22.5143 1.28312 19.0155 2.87362 16.3748C4.45625 13.7472 6.81209 12 10 12C12.3347 12 15.1489 12.8919 17.192 13.6958C17.2606 14.6983 18.0961 15.5 19.1161 15.5ZM21.0686 13.1415C20.1676 13.2855 19.2416 13.2453 18.3545 13.0209L18.5736 12.2222C19.4752 11.0094 20.1748 10.4272 20.9023 9.843C20.9377 9.81461 20.9731 9.7862 21.0087 9.7577C21.7177 9.18942 22.4701 8.5864 23.4157 7.42487L24.6206 7.00316C25.0603 7.03989 25.4205 7.39239 25.4679 7.83748L24.8285 9.20208C24.0754 9.91952 23.6323 10.4851 23.239 10.987C23.0893 11.178 22.9469 11.3597 22.7974 11.5371C22.4094 11.9975 21.9307 12.4881 21.0686 13.1415ZM18.3184 14.0401C18.7074 14.127 19.102 14.1834 19.4983 14.2094L18.998 14.4923C18.7111 14.4548 18.4621 14.2826 18.3184 14.0401ZM21.5755 44.7078C21.5756 44.7077 21.5776 44.7067 21.5812 44.7051C21.5772 44.7071 21.5754 44.708 21.5755 44.7078ZM18.2345 44.6784C18.2344 44.6782 18.238 44.6773 18.2448 44.6762C18.2441 44.6764 18.2434 44.6766 18.2428 44.6767C18.2372 44.6781 18.2345 44.6785 18.2345 44.6784ZM18.6205 44.816C18.6283 44.8246 18.6308 44.8285 18.6279 44.825L18.6256 44.8221C18.6242 44.8204 18.6225 44.8184 18.6205 44.816Z" fill="#56FF1E" stroke="#00CE0A"/>
<path d="M24.4681 20.7156L19.9681 35.7156C19.9075 35.9019 19.7763 36.057 19.6027 36.1479C19.4292 36.2387 19.2269 36.258 19.0393 36.2017C18.8517 36.1453 18.6936 36.0178 18.5987 35.8464C18.5039 35.675 18.4799 35.4733 18.5319 35.2844L22.7422 21.25H16.25C16.0511 21.25 15.8603 21.171 15.7197 21.0303C15.579 20.8897 15.5 20.6989 15.5 20.5C15.5 20.3011 15.579 20.1103 15.7197 19.9697C15.8603 19.829 16.0511 19.75 16.25 19.75H23.75C23.8669 19.75 23.9822 19.7774 24.0867 19.8299C24.1911 19.8824 24.2818 19.9586 24.3516 20.0524C24.4214 20.1462 24.4682 20.2551 24.4885 20.3702C24.5087 20.4854 24.5017 20.6036 24.4681 20.7156Z" fill="#F23434" stroke="#F23434"/>
</g>
<defs>
<clipPath id="clip0_64_75">
<rect width="40" height="46" fill="white"/>
</clipPath>
</defs>
</svg>
