<svg width="40" height="46" viewBox="0 0 40 46" fill="none" xmlns="http://www.w3.org/2000/svg">
<g clip-path="url(#clip0_64_77)">
<path d="M19.1161 15.5H19.2477L19.3622 15.4352L20.2462 14.9352L20.2606 14.927L20.2745 14.9179C20.735 14.6155 21.1315 14.3398 21.4772 14.0846C21.929 13.9971 22.3743 13.8688 22.807 13.6997L22.8071 13.6997C24.8439 12.9031 27.6713 12 30.0089 12C33.1968 12 35.5527 13.7472 37.1353 16.3748C38.7258 19.0155 39.5089 22.5143 39.5089 25.875C39.5089 31.4768 37.1357 36.1313 33.887 39.3894C30.6278 42.6579 26.5257 44.4848 23.1161 44.4848C22.2485 44.4848 21.9029 44.5613 21.6912 44.6518C21.6193 44.6285 21.4998 44.5868 21.2914 44.5133L21.2893 44.5125C20.4597 44.224 19.5582 44.224 18.7286 44.5125L18.7264 44.5133C18.5706 44.5683 18.4628 44.6059 18.3876 44.6314C18.3311 44.6027 18.2711 44.5805 18.2086 44.5629C18.0245 44.511 17.7659 44.4848 17.3839 44.4848C13.9665 44.4848 9.73939 42.6549 6.35772 39.3831C2.98701 36.1218 0.5 31.4687 0.5 25.875C0.5 22.5143 1.28312 19.0155 2.87362 16.3748C4.45625 13.7472 6.81209 12 10 12C12.3347 12 15.1489 12.8919 17.192 13.6958C17.2606 14.6983 18.0961 15.5 19.1161 15.5ZM21.0686 13.1415C20.1676 13.2855 19.2416 13.2453 18.3545 13.0209L18.5736 12.2222C19.4752 11.0094 20.1748 10.4272 20.9023 9.843C20.9377 9.81461 20.9731 9.7862 21.0087 9.7577C21.7177 9.18942 22.4701 8.5864 23.4157 7.42487L24.6206 7.00316C25.0603 7.03989 25.4205 7.39239 25.4679 7.83748L24.8285 9.20208C24.0754 9.91952 23.6323 10.4851 23.239 10.987C23.0893 11.178 22.9469 11.3597 22.7974 11.5371C22.4094 11.9975 21.9307 12.4881 21.0686 13.1415ZM18.3184 14.0401C18.7074 14.127 19.102 14.1834 19.4983 14.2094L18.998 14.4923C18.7111 14.4548 18.4621 14.2826 18.3184 14.0401ZM21.5755 44.7078C21.5756 44.7077 21.5776 44.7067 21.5812 44.7051C21.5772 44.7071 21.5754 44.708 21.5755 44.7078ZM18.2345 44.6784C18.2344 44.6782 18.238 44.6773 18.2448 44.6762C18.2441 44.6764 18.2434 44.6766 18.2428 44.6767C18.2372 44.6781 18.2345 44.6785 18.2345 44.6784ZM18.6205 44.816C18.6283 44.8246 18.6308 44.8285 18.6279 44.825L18.6256 44.8221C18.6242 44.8204 18.6225 44.8184 18.6205 44.816Z" fill="#56FF1E" stroke="#00CE0A"/>
<path d="M22.5828 27.1816C23.3664 26.6324 23.9544 25.8477 24.2617 24.9416C24.5689 24.0354 24.5794 23.0549 24.2914 22.1424C24.0035 21.2299 23.4322 20.433 22.6605 19.8673C21.8888 19.3016 20.9568 18.9966 20 18.9966C19.0432 18.9966 18.1112 19.3016 17.3395 19.8673C16.5678 20.433 15.9965 21.2299 15.7086 22.1424C15.4207 23.0549 15.4311 24.0354 15.7383 24.9416C16.0456 25.8477 16.6336 26.6324 17.4172 27.1816C16.4074 27.7522 15.615 28.6411 15.1637 29.7096C14.7124 30.7781 14.6277 31.9659 14.9227 33.0876C15.2177 34.2093 15.8758 35.2018 16.7944 35.91C17.7129 36.6182 18.8401 37.0023 20 37.0023C21.1599 37.0023 22.2871 36.6182 23.2056 35.91C24.1242 35.2018 24.7823 34.2093 25.0773 33.0876C25.3724 31.9659 25.2876 30.7781 24.8363 29.7096C24.385 28.6411 23.5926 27.7522 22.5828 27.1816ZM17 23.5C17 22.9067 17.1759 22.3266 17.5056 21.8333C17.8352 21.3399 18.3038 20.9554 18.852 20.7284C19.4001 20.5013 20.0033 20.4419 20.5853 20.5576C21.1672 20.6734 21.7018 20.9591 22.1213 21.3787C22.5409 21.7982 22.8266 22.3328 22.9424 22.9147C23.0581 23.4967 22.9987 24.0999 22.7716 24.6481C22.5446 25.1962 22.1601 25.6648 21.6667 25.9944C21.1734 26.3241 20.5933 26.5 20 26.5C19.2044 26.5 18.4413 26.1839 17.8787 25.6213C17.3161 25.0587 17 24.2956 17 23.5ZM20 35.5C19.2583 35.5 18.5333 35.2801 17.9166 34.868C17.2999 34.456 16.8193 33.8703 16.5355 33.1851C16.2516 32.4998 16.1774 31.7458 16.3221 31.0184C16.4668 30.291 16.8239 29.6228 17.3484 29.0983C17.8728 28.5739 18.541 28.2167 19.2684 28.0721C19.9958 27.9274 20.7498 28.0016 21.4351 28.2855C22.1203 28.5693 22.706 29.0499 23.118 29.6666C23.5301 30.2833 23.75 31.0083 23.75 31.75C23.75 32.7446 23.3549 33.6984 22.6517 34.4016C21.9484 35.1049 20.9946 35.5 20 35.5Z" fill="#F23434" stroke="#F23434"/>
</g>
<defs>
<clipPath id="clip0_64_77">
<rect width="40" height="46" fill="white"/>
</clipPath>
</defs>
</svg>
