<svg width="40" height="46" viewBox="0 0 40 46" fill="none" xmlns="http://www.w3.org/2000/svg">
<g clip-path="url(#clip0_64_79)">
<path d="M19.1161 15.5H19.2477L19.3622 15.4352L20.2462 14.9352L20.2606 14.927L20.2745 14.9179C20.735 14.6155 21.1315 14.3398 21.4772 14.0846C21.929 13.9971 22.3743 13.8688 22.807 13.6997L22.8071 13.6997C24.8439 12.9031 27.6713 12 30.0089 12C33.1968 12 35.5527 13.7472 37.1353 16.3748C38.7258 19.0155 39.5089 22.5143 39.5089 25.875C39.5089 31.4768 37.1357 36.1313 33.887 39.3894C30.6278 42.6579 26.5257 44.4848 23.1161 44.4848C22.2485 44.4848 21.9029 44.5613 21.6912 44.6518C21.6193 44.6285 21.4998 44.5868 21.2914 44.5133L21.2893 44.5125C20.4597 44.224 19.5582 44.224 18.7286 44.5125L18.7264 44.5133C18.5706 44.5683 18.4628 44.6059 18.3876 44.6314C18.3311 44.6027 18.2711 44.5805 18.2086 44.5629C18.0245 44.511 17.7659 44.4848 17.3839 44.4848C13.9665 44.4848 9.73939 42.6549 6.35772 39.3831C2.98701 36.1218 0.5 31.4687 0.5 25.875C0.5 22.5143 1.28312 19.0155 2.87362 16.3748C4.45625 13.7472 6.81209 12 10 12C12.3347 12 15.1489 12.8919 17.192 13.6958C17.2606 14.6983 18.0961 15.5 19.1161 15.5ZM21.0686 13.1415C20.1676 13.2855 19.2416 13.2453 18.3545 13.0209L18.5736 12.2222C19.4752 11.0094 20.1748 10.4272 20.9023 9.843C20.9377 9.81461 20.9731 9.7862 21.0087 9.7577C21.7177 9.18942 22.4701 8.5864 23.4157 7.42487L24.6206 7.00316C25.0603 7.03989 25.4205 7.39239 25.4679 7.83748L24.8285 9.20208C24.0754 9.91952 23.6323 10.4851 23.239 10.987C23.0893 11.178 22.9469 11.3597 22.7974 11.5371C22.4094 11.9975 21.9307 12.4881 21.0686 13.1415ZM18.3184 14.0401C18.7074 14.127 19.102 14.1834 19.4983 14.2094L18.998 14.4923C18.7111 14.4548 18.4621 14.2826 18.3184 14.0401ZM21.5755 44.7078C21.5756 44.7077 21.5776 44.7067 21.5812 44.7051C21.5772 44.7071 21.5754 44.708 21.5755 44.7078ZM18.2345 44.6784C18.2344 44.6782 18.238 44.6773 18.2448 44.6762C18.2441 44.6764 18.2434 44.6766 18.2428 44.6767C18.2372 44.6781 18.2345 44.6785 18.2345 44.6784ZM18.6205 44.816C18.6283 44.8246 18.6308 44.8285 18.6279 44.825L18.6256 44.8221C18.6242 44.8204 18.6225 44.8184 18.6205 44.816Z" fill="#56FF1E" stroke="#00CE0A"/>
<path d="M20 19.75C19.2478 19.7497 18.5044 19.9109 17.82 20.2229C17.1356 20.5349 16.5262 20.9902 16.0332 21.5582C15.5401 22.1262 15.1748 22.7934 14.962 23.5148C14.7492 24.2363 14.694 24.995 14.7999 25.7396C14.9059 26.4842 15.1706 27.1974 15.5762 27.8309C15.9817 28.4643 16.5187 29.0032 17.1506 29.411C17.7825 29.8189 18.4948 30.0862 19.239 30.1949C19.9832 30.3036 20.7422 30.2511 21.4643 30.0409L18.5937 35.1316C18.4961 35.3056 18.4717 35.5113 18.5257 35.7034C18.5798 35.8955 18.7079 36.0582 18.882 36.1558C19.056 36.2534 19.2617 36.2778 19.4538 36.2238C19.6459 36.1697 19.8086 36.0415 19.9062 35.8675L24.5515 27.6175C25.0107 26.8192 25.2517 25.9142 25.2506 24.9934C25.2494 24.0725 25.006 23.1681 24.5449 22.371C24.0837 21.5739 23.421 20.9121 22.6233 20.4521C21.8256 19.992 20.9208 19.7499 20 19.75ZM20 28.75C19.2583 28.75 18.5333 28.5301 17.9166 28.118C17.2999 27.706 16.8192 27.1203 16.5354 26.4351C16.2516 25.7498 16.1773 24.9958 16.322 24.2684C16.4667 23.541 16.8239 22.8728 17.3483 22.3484C17.8728 21.8239 18.5409 21.4668 19.2684 21.3221C19.9958 21.1774 20.7498 21.2516 21.435 21.5355C22.1203 21.8193 22.7059 22.2999 23.118 22.9166C23.53 23.5333 23.75 24.2583 23.75 25C23.75 25.9946 23.3549 26.9484 22.6516 27.6517C21.9484 28.3549 20.9945 28.75 20 28.75Z" fill="#F23434" stroke="#F23434"/>
</g>
<defs>
<clipPath id="clip0_64_79">
<rect width="40" height="46" fill="white"/>
</clipPath>
</defs>
</svg>
